<svg width="1440" height="3382" viewBox="0 0 1440 3382" fill="none" xmlns="http://www.w3.org/2000/svg">
<path d="M2042.32 0H-79V3858.32H2042.32V0Z" fill="url(#paint0_linear_205_4537)"/>
<path d="M174.295 1992.89C179.535 1992.89 181.655 1986.38 175.245 1986.38C170.005 1986.38 167.885 1992.89 174.295 1992.89Z" fill="white" fill-opacity="0.54"/>
<path d="M161.755 2139.69C155.665 2147.42 156.295 2157.97 156.295 2167.3C156.295 2171.78 165.785 2170 165.795 2166.35C165.795 2158.99 164.605 2148.05 169.495 2141.85C173.085 2137.28 164.055 2136.78 161.755 2139.69Z" fill="white" fill-opacity="0.54"/>
<path d="M217.505 2320.02C219.795 2320.02 222.235 2319.54 224.175 2318.23C225.595 2317.27 225.465 2315.92 223.555 2315.92C221.255 2315.92 218.815 2316.4 216.885 2317.71C215.465 2318.67 215.595 2320.02 217.505 2320.02Z" fill="white" fill-opacity="0.54"/>
<path d="M281.545 2205.26C283.815 2205.26 286.285 2204.71 288.215 2203.47C289.675 2202.54 289.505 2201.36 287.645 2201.36C285.375 2201.36 282.915 2201.91 280.975 2203.15C279.515 2204.08 279.685 2205.26 281.545 2205.26Z" fill="white" fill-opacity="0.54"/>
<path d="M630.506 1986.99C632.616 1986.99 635.426 1986.26 636.746 1984.46C638.066 1982.65 635.635 1981.86 634.235 1981.86C632.125 1981.86 629.316 1982.58 627.996 1984.39C626.676 1986.2 629.106 1986.99 630.506 1986.99Z" fill="white" fill-opacity="0.54"/>
<path d="M806.405 2017.41C809.455 2020.88 812.505 2024.36 815.555 2027.83C817.365 2029.9 826.315 2026.6 824.385 2024.4C821.335 2020.93 818.285 2017.45 815.235 2013.98C813.425 2011.92 804.485 2015.22 806.405 2017.41Z" fill="white" fill-opacity="0.54"/>
<path d="M909.525 2023.05C912.575 2023.05 915.625 2023.05 918.675 2023.05C920.705 2023.05 923.545 2022.23 924.965 2020.7C926.485 2019.06 923.645 2018.78 922.635 2018.78C919.585 2018.78 916.535 2018.78 913.485 2018.78C911.455 2018.78 908.615 2019.6 907.195 2021.13C905.675 2022.77 908.515 2023.05 909.525 2023.05Z" fill="white" fill-opacity="0.54"/>
<path d="M1083.63 2023.86C1085.15 2023.86 1086.68 2023.86 1088.2 2023.86C1090.39 2023.86 1093.17 2023.21 1094.4 2021.17C1095.54 2019.27 1093.44 2017.96 1091.73 2017.96C1090.21 2017.96 1088.68 2017.96 1087.16 2017.96C1084.97 2017.96 1082.19 2018.61 1080.96 2020.65C1079.82 2022.55 1081.92 2023.86 1083.63 2023.86Z" fill="white" fill-opacity="0.54"/>
<path d="M1309.86 1944.74C1315.23 1951.15 1318.21 1959.19 1323.59 1965.59C1326.13 1968.62 1335.15 1965.01 1332.27 1961.59C1326.89 1955.19 1323.91 1947.15 1318.54 1940.74C1315.99 1937.7 1306.98 1941.3 1309.86 1944.74Z" fill="white" fill-opacity="0.54"/>
<path d="M1358.42 1925.17C1356.9 1925.17 1355.37 1925.17 1353.85 1925.17C1351.58 1925.17 1349.11 1925.73 1347.18 1926.96C1346.81 1927.2 1345.92 1927.77 1346.08 1928.37C1346.24 1928.96 1347.3 1929.04 1347.74 1929.04C1349.26 1929.04 1350.79 1929.04 1352.31 1929.04C1354.58 1929.04 1357.05 1928.48 1358.98 1927.25C1359.35 1927.01 1360.24 1926.44 1360.08 1925.84C1359.92 1925.24 1358.86 1925.17 1358.42 1925.17Z" fill="white" fill-opacity="0.54"/>
<path d="M923.405 1919.43C925.555 1919.43 928.355 1918.74 929.625 1916.82C930.855 1914.96 928.595 1913.92 927.035 1913.92C924.885 1913.92 922.085 1914.61 920.815 1916.53C919.595 1918.39 921.845 1919.43 923.405 1919.43Z" fill="white" fill-opacity="0.54"/>
<path d="M528.645 1866.53C530.925 1866.53 533.385 1865.99 535.315 1864.74C536.775 1863.8 536.605 1862.6 534.745 1862.6C532.465 1862.6 530.005 1863.14 528.075 1864.39C526.615 1865.32 526.775 1866.53 528.645 1866.53Z" fill="white" fill-opacity="0.54"/>
<path d="M230.285 2014.21C226.585 2018.26 220.555 2020.09 220.325 2026.44C220.145 2031.52 229.745 2030.24 229.905 2025.79C229.975 2023.87 230.335 2023.75 231.775 2022.71C234.105 2021.02 236.285 2019.33 238.235 2017.19C239.765 2015.51 238.975 2013.18 236.955 2012.42C234.635 2011.55 231.915 2012.43 230.285 2014.21Z" fill="white" fill-opacity="0.54"/>
<path d="M156.325 2142.04C156.325 2143.78 156.325 2145.51 156.325 2147.25C156.325 2148.01 157.625 2148.41 158.145 2148.51C159.305 2148.73 160.535 2148.59 161.665 2148.29C163.395 2147.83 165.765 2146.79 165.765 2144.72C165.765 2142.98 165.765 2141.24 165.765 2139.51C165.765 2138.75 164.465 2138.35 163.945 2138.25C162.785 2138.03 161.555 2138.17 160.425 2138.47C158.695 2138.94 156.325 2139.97 156.325 2142.04Z" fill="white" fill-opacity="0.54"/>
<path d="M105.985 2407.11C105.985 2412.73 105.425 2417.54 101.725 2422.02C100.225 2423.84 102.995 2424.95 104.335 2425C106.675 2425.09 109.045 2424.18 110.545 2422.37C114.565 2417.51 115.435 2412.13 115.435 2406.01C115.445 2401.87 105.985 2403.83 105.985 2407.11Z" fill="white" fill-opacity="0.54"/>
<path d="M138.295 2616.61C142.865 2621.82 147.445 2627.03 152.025 2632.24C153.525 2633.95 162.275 2630.61 160.925 2629.07C156.345 2623.86 151.765 2618.65 147.195 2613.44C145.695 2611.73 136.945 2615.07 138.295 2616.61Z" fill="white" fill-opacity="0.54"/>
<path d="M264.375 2690.38C266.445 2690.38 269.275 2689.62 270.635 2687.92C272.035 2686.17 269.445 2685.59 268.195 2685.59C266.125 2685.59 263.295 2686.35 261.935 2688.05C260.545 2689.8 263.125 2690.38 264.375 2690.38Z" fill="white" fill-opacity="0.54"/>
<path d="M319.385 2503.12C321.535 2503.12 324.335 2502.43 325.605 2500.51C326.835 2498.65 324.575 2497.62 323.015 2497.62C320.865 2497.62 318.065 2498.31 316.795 2500.23C315.565 2502.08 317.825 2503.12 319.385 2503.12Z" fill="white" fill-opacity="0.54"/>
<path d="M323.085 2310.28C321.055 2310.16 318.755 2308.34 317.035 2307.37C314.585 2305.99 312.175 2305.23 309.365 2305.07C307.325 2304.95 304.395 2305.88 303.115 2307.56C301.725 2309.38 304.305 2309.94 305.585 2310.02C307.615 2310.14 309.915 2311.96 311.635 2312.93C314.085 2314.31 316.495 2315.07 319.305 2315.23C321.345 2315.35 324.275 2314.42 325.555 2312.74C326.955 2310.91 324.365 2310.35 323.085 2310.28Z" fill="white" fill-opacity="0.54"/>
<path d="M182.065 2440.41C184.175 2440.41 186.995 2439.69 188.305 2437.87C189.615 2436.06 187.205 2435.24 185.785 2435.24C183.675 2435.24 180.855 2435.96 179.545 2437.78C178.235 2439.6 180.645 2440.41 182.065 2440.41Z" fill="white" fill-opacity="0.54"/>
<path d="M101.394 2579.03C101.324 2581.02 100.674 2581.92 99.5845 2583.18C97.9945 2585.01 96.9045 2586.99 96.8145 2589.45C96.6545 2593.83 106.174 2592.07 106.304 2588.47C106.374 2586.48 107.024 2585.58 108.114 2584.32C109.704 2582.49 110.794 2580.51 110.884 2578.05C111.034 2573.67 101.514 2575.43 101.394 2579.03Z" fill="white" fill-opacity="0.54"/>
<path d="M72.3845 2774.49C74.6145 2774.49 77.3745 2773.88 78.5645 2771.73C79.6345 2769.8 77.6545 2768.26 75.8245 2768.26C73.5945 2768.26 70.8345 2768.87 69.6445 2771.02C68.5745 2772.94 70.5545 2774.49 72.3845 2774.49Z" fill="white" fill-opacity="0.54"/>
<path d="M224.665 2884.16C229.975 2884.16 231.975 2877.47 225.565 2877.47C220.245 2877.47 218.255 2884.16 224.665 2884.16Z" fill="white" fill-opacity="0.54"/>
<path d="M346.905 2847.31C349.105 2847.31 351.885 2846.67 353.095 2844.61C354.225 2842.71 352.145 2841.37 350.415 2841.37C348.215 2841.37 345.435 2842.01 344.225 2844.07C343.095 2845.97 345.175 2847.31 346.905 2847.31Z" fill="white" fill-opacity="0.54"/>
<path d="M471.765 2847.72C477.105 2847.72 479.045 2840.96 472.645 2840.96C467.305 2840.95 465.355 2847.72 471.765 2847.72Z" fill="white" fill-opacity="0.54"/>
<path d="M676.215 2846.72C679.265 2846.72 682.315 2846.72 685.365 2846.72C687.435 2846.72 690.265 2845.96 691.625 2844.26C693.025 2842.51 690.435 2841.94 689.195 2841.94C686.145 2841.94 683.095 2841.94 680.045 2841.94C677.975 2841.94 675.145 2842.7 673.785 2844.4C672.375 2846.15 674.975 2846.72 676.215 2846.72Z" fill="white" fill-opacity="0.54"/>
<path d="M1207.19 2862.96C1209.39 2862.96 1212.17 2862.32 1213.38 2860.25C1214.5 2858.34 1212.44 2856.97 1210.69 2856.97C1208.49 2856.97 1205.71 2857.61 1204.5 2859.68C1203.38 2861.59 1205.44 2862.96 1207.19 2862.96Z" fill="white" fill-opacity="0.54"/>
<path d="M1167.35 2430.93C1172.79 2430.93 1174.55 2423.89 1168.15 2423.89C1162.71 2423.89 1160.95 2430.93 1167.35 2430.93Z" fill="white" fill-opacity="0.54"/>
<path d="M1262.02 2060.11C1264.16 2060.11 1266.97 2059.42 1268.24 2057.51C1269.48 2055.66 1267.2 2054.66 1265.66 2054.66C1263.52 2054.66 1260.71 2055.35 1259.44 2057.26C1258.2 2059.11 1260.48 2060.11 1262.02 2060.11Z" fill="white" fill-opacity="0.54"/>
<path d="M1137.22 1871.65C1139.48 1871.65 1141.96 1871.04 1143.89 1869.86C1145.38 1868.95 1145.18 1867.89 1143.36 1867.89C1141.1 1867.89 1138.62 1868.49 1136.69 1869.68C1135.2 1870.6 1135.4 1871.65 1137.22 1871.65Z" fill="white" fill-opacity="0.54"/>
<path d="M970.515 1961.64C975.775 1961.64 977.865 1955.09 971.445 1955.09C966.185 1955.09 964.095 1961.64 970.515 1961.64Z" fill="white" fill-opacity="0.54"/>
<path d="M933.934 2092.02C939.254 2092.02 941.234 2085.3 934.824 2085.3C929.504 2085.3 927.524 2092.02 933.934 2092.02Z" fill="white" fill-opacity="0.54"/>
<path d="M603.165 1956.16C605.375 1956.16 608.145 1955.53 609.355 1953.45C610.465 1951.54 608.415 1950.15 606.655 1950.15C604.445 1950.15 601.675 1950.78 600.465 1952.86C599.355 1954.77 601.405 1956.16 603.165 1956.16Z" fill="white" fill-opacity="0.54"/>
<path d="M218.625 2565.32C220.705 2565.32 223.525 2564.56 224.885 2562.85C226.275 2561.09 223.705 2560.49 222.435 2560.49C220.355 2560.49 217.535 2561.25 216.175 2562.96C214.785 2564.72 217.355 2565.32 218.625 2565.32Z" fill="white" fill-opacity="0.54"/>
<path d="M191.075 2835.99C193.835 2835.99 201.355 2831.82 195.065 2831.82C192.305 2831.82 184.785 2835.99 191.075 2835.99Z" fill="white" fill-opacity="0.54"/>
<path d="M5.02497 3019.69C10.365 3019.69 12.305 3012.93 5.90497 3012.93C0.564971 3012.93 -1.37503 3019.69 5.02497 3019.69Z" fill="white" fill-opacity="0.54"/>
<path d="M242.415 3085.91C239.615 3085.91 236.815 3085.91 234.015 3085.91C232.055 3085.91 229.485 3087.41 229.265 3089.52C229.025 3091.82 231.525 3092.56 233.325 3092.56C236.125 3092.56 238.925 3092.56 241.725 3092.56C243.685 3092.56 246.255 3091.06 246.475 3088.95C246.715 3086.65 244.215 3085.91 242.415 3085.91Z" fill="white" fill-opacity="0.54"/>
<path d="M1389.27 2833.82C1394.17 2833.82 1395.96 2827.61 1390.07 2827.61C1385.17 2827.61 1383.38 2833.82 1389.27 2833.82Z" fill="white" fill-opacity="0.54"/>
<path d="M1202.27 2828.52C1199.47 2828.52 1196.67 2828.52 1193.87 2828.52C1191.97 2828.52 1189.37 2829.22 1188.12 2830.78C1186.83 2832.39 1189.22 2832.91 1190.36 2832.91C1193.16 2832.91 1195.96 2832.91 1198.76 2832.91C1200.66 2832.91 1203.26 2832.21 1204.51 2830.65C1205.79 2829.04 1203.41 2828.52 1202.27 2828.52Z" fill="white" fill-opacity="0.54"/>
<path d="M711.285 2819.1C713.315 2819.1 715.855 2818.52 716.975 2816.61C718.005 2814.86 716.105 2813.59 714.505 2813.59C712.485 2813.59 709.935 2814.17 708.815 2816.08C707.785 2817.84 709.685 2819.1 711.285 2819.1Z" fill="white" fill-opacity="0.54"/>
<path d="M784.395 3082.16C779.255 3091.6 771.565 3099.62 763.875 3107.03C762.355 3108.5 763.285 3110.74 765.045 3111.39C767.275 3112.22 769.565 3111.3 771.175 3109.75C779.365 3101.86 787.245 3093.31 792.715 3083.27C795.105 3078.89 786.295 3078.68 784.395 3082.16Z" fill="white" fill-opacity="0.54"/>
<path d="M275.845 3021.05C275.845 3020.18 275.615 3019.3 275.255 3018.51C274.315 3016.45 272.275 3015.77 270.145 3015.72C268.105 3015.67 265.765 3016.31 264.015 3017.36C263.705 3017.55 262.845 3018.05 262.985 3018.58C263.125 3019.11 264.125 3019.11 264.495 3019.12C264.835 3019.13 264.825 3019.13 264.465 3019.1C264.675 3019.13 264.885 3019.18 265.095 3019.24C264.695 3019.13 265.245 3019.34 265.295 3019.37C265.455 3019.46 265.595 3019.57 265.745 3019.68C266.215 3020.03 266.485 3020.52 266.735 3021.13C267.025 3021.82 267.195 3022.63 267.195 3023.38C267.205 3024.58 271.435 3023.58 271.865 3023.46C272.815 3023.2 275.855 3022.46 275.845 3021.05Z" fill="white" fill-opacity="0.54"/>
<path d="M191.485 2920.01C189.995 2918.32 188.585 2916.53 186.605 2915.4C184.915 2914.44 182.635 2914.55 180.765 2914.55C178.835 2914.55 176.245 2915.22 175.035 2916.87C173.815 2918.52 176.065 2919.23 177.335 2919.23C177.725 2919.23 178.125 2919.23 178.515 2919.24C178.655 2919.24 179.775 2919.3 178.805 2919.22C179.065 2919.24 179.315 2919.29 179.575 2919.35C178.805 2919.18 179.715 2919.48 179.905 2919.59C179.485 2919.35 180.255 2919.92 180.235 2919.91C180.505 2920.14 180.755 2920.4 181.005 2920.65C181.855 2921.51 182.635 2922.44 183.435 2923.35C185.305 2925.48 193.575 2922.4 191.485 2920.01Z" fill="white" fill-opacity="0.54"/>
<path d="M107.445 2922.2C107.445 2923.8 107.445 2925.39 107.445 2926.99C107.445 2928.94 109.665 2929.13 111.215 2928.94C112.365 2928.8 113.515 2928.43 114.495 2927.82C115.025 2927.49 116.125 2926.7 116.125 2925.94C116.125 2924.34 116.125 2922.75 116.125 2921.15C116.125 2919.2 113.905 2919.01 112.355 2919.2C111.205 2919.34 110.055 2919.71 109.075 2920.32C108.555 2920.65 107.445 2921.44 107.445 2922.2Z" fill="white" fill-opacity="0.54"/>
<path d="M107.455 3028.16C107.465 3029.08 107.715 3030.02 108.115 3030.84C109.305 3033.24 111.695 3033.78 114.195 3033.84C116.055 3033.88 118.695 3033.08 119.965 3031.64C121.335 3030.08 118.785 3029.76 117.785 3029.74C118.325 3029.76 118.405 3029.76 118.025 3029.72C118.765 3029.81 118.175 3029.74 117.975 3029.68C117.385 3029.48 118.355 3029.94 117.845 3029.63C117.695 3029.54 117.555 3029.42 117.415 3029.31C117.285 3029.2 117.165 3029.07 117.055 3028.94C117.015 3028.89 116.715 3028.45 116.945 3028.81C116.775 3028.54 116.645 3028.25 116.535 3027.95C116.285 3027.29 116.135 3026.55 116.125 3025.84C116.105 3023.85 107.435 3025.29 107.455 3028.16Z" fill="white" fill-opacity="0.54"/>
<defs>
<linearGradient id="paint0_linear_205_4537" x1="981.66" y1="3858.32" x2="981.66" y2="0" gradientUnits="userSpaceOnUse">
<stop stop-color="#1F062D"/>
<stop offset="0.0748" stop-color="#1B0329"/>
<stop offset="0.3756" stop-color="#10001B"/>
<stop offset="0.682" stop-color="#07000E"/>
<stop offset="1" stop-color="#040008"/>
</linearGradient>
</defs>
</svg>
